<svg width="90" height="51" viewBox="0 0 90 51" fill="none" xmlns="http://www.w3.org/2000/svg">
<path d="M16.8835 22.0329H12.9242L3.95928 8.57148V22.0329H0V2.38877H3.95928L12.9242 15.8783V2.38877H16.8835V22.0329Z" fill="#2C2C2C"/>
<path d="M27.4704 22.2858C25.9621 22.2858 24.6046 21.958 23.398 21.3022C22.1913 20.6278 21.2392 19.6816 20.5416 18.4638C19.8629 17.246 19.5235 15.8408 19.5235 14.2483C19.5235 12.6558 19.8723 11.2507 20.5699 10.0328C21.2863 8.81504 22.2573 7.87827 23.4828 7.22253C24.7083 6.54805 26.0752 6.21081 27.5835 6.21081C29.0918 6.21081 30.4587 6.54805 31.6842 7.22253C32.9097 7.87827 33.8712 8.81504 34.5688 10.0328C35.2852 11.2507 35.6434 12.6558 35.6434 14.2483C35.6434 15.8408 35.2758 17.246 34.5405 18.4638C33.8241 19.6816 32.8437 20.6278 31.5993 21.3022C30.3738 21.958 28.9975 22.2858 27.4704 22.2858ZM27.4704 18.8573C28.1868 18.8573 28.8561 18.6886 29.4783 18.3514C30.1193 17.9954 30.6284 17.4708 31.0054 16.7776C31.3825 16.0844 31.571 15.2413 31.571 14.2483C31.571 12.7682 31.1751 11.6347 30.3833 10.8478C29.6103 10.0422 28.6581 9.6394 27.5269 9.6394C26.3957 9.6394 25.4436 10.0422 24.6706 10.8478C23.9164 11.6347 23.5394 12.7682 23.5394 14.2483C23.5394 15.7284 23.907 16.8713 24.6423 17.6769C25.3965 18.4638 26.3391 18.8573 27.4704 18.8573Z" fill="#2C2C2C"/>
<path d="M42.2242 8.88062C42.7333 8.05625 43.3931 7.40988 44.2038 6.94149C45.0334 6.47311 45.9761 6.23891 47.0319 6.23891V10.3701H45.9855C44.7412 10.3701 43.7985 10.6605 43.1575 11.2413C42.5353 11.8221 42.2242 12.8338 42.2242 14.2764V22.0329H38.2649V6.46374H42.2242V8.88062Z" fill="#2C2C2C"/>
<path d="M48.3978 14.1921C48.3978 12.6183 48.7088 11.2225 49.331 10.0047C49.972 8.78694 50.8393 7.85016 51.9328 7.19442C53.0263 6.53868 54.2424 6.21081 55.581 6.21081C56.5991 6.21081 57.5701 6.43564 58.4939 6.88529C59.4177 7.3162 60.153 7.897 60.6998 8.62769V1.23654H64.7156V22.0329H60.6998V19.7285C60.2096 20.4966 59.5214 21.1149 58.6353 21.5833C57.7492 22.0517 56.7217 22.2858 55.5527 22.2858C54.233 22.2858 53.0263 21.9486 51.9328 21.2741C50.8393 20.5997 49.972 19.6535 49.331 18.4357C48.7088 17.1992 48.3978 15.7846 48.3978 14.1921ZM60.7281 14.2483C60.7281 13.2928 60.5395 12.4778 60.1625 11.8033C59.7854 11.1101 59.2763 10.5855 58.6353 10.2296C57.9943 9.85486 57.3061 9.66751 56.5708 9.66751C55.8355 9.66751 55.1568 9.84549 54.5346 10.2015C53.9125 10.5574 53.4034 11.082 53.0075 11.7752C52.6304 12.4497 52.4419 13.2553 52.4419 14.1921C52.4419 15.1289 52.6304 15.9533 53.0075 16.6652C53.4034 17.3584 53.9125 17.8924 54.5346 18.2671C55.1757 18.6418 55.8544 18.8292 56.5708 18.8292C57.3061 18.8292 57.9943 18.6512 58.6353 18.2952C59.2763 17.9205 59.7854 17.3959 60.1625 16.7214C60.5395 16.0282 60.7281 15.2038 60.7281 14.2483Z" fill="#2C2C2C"/>
<path d="M70.3077 4.60893C69.6101 4.60893 69.0256 4.39347 68.5543 3.96255C68.1018 3.5129 67.8755 2.9602 67.8755 2.30446C67.8755 1.64872 68.1018 1.10539 68.5543 0.674477C69.0256 0.224826 69.6101 0 70.3077 0C71.0053 0 71.5803 0.224826 72.0328 0.674477C72.5041 1.10539 72.7398 1.64872 72.7398 2.30446C72.7398 2.9602 72.5041 3.5129 72.0328 3.96255C71.5803 4.39347 71.0053 4.60893 70.3077 4.60893ZM72.259 6.46374V22.0329H68.2998V6.46374H72.259Z" fill="#2C2C2C"/>
<path d="M74.8699 14.2483C74.8699 12.6371 75.1998 11.2319 75.8597 10.0328C76.5196 8.81504 77.434 7.87827 78.6029 7.22253C79.7719 6.54805 81.1105 6.21081 82.6188 6.21081C84.5607 6.21081 86.1633 6.69793 87.4265 7.67218C88.7085 8.62769 89.5664 9.97664 90 11.719H85.7296C85.5034 11.0446 85.1169 10.52 84.5701 10.1453C84.0422 9.75181 83.3824 9.55509 82.5905 9.55509C81.4593 9.55509 80.5637 9.96727 79.9038 10.7916C79.244 11.5973 78.914 12.7495 78.914 14.2483C78.914 15.7284 79.244 16.8807 79.9038 17.705C80.5637 18.5107 81.4593 18.9135 82.5905 18.9135C84.1931 18.9135 85.2394 18.2015 85.7296 16.7776H90C89.5664 18.4638 88.7085 19.8034 87.4265 20.7964C86.1444 21.7894 84.5419 22.2858 82.6188 22.2858C81.1105 22.2858 79.7719 21.958 78.6029 21.3022C77.434 20.6278 76.5196 19.691 75.8597 18.4919C75.1998 17.2741 74.8699 15.8596 74.8699 14.2483Z" fill="#2C2C2C"/>
<path d="M12.1889 31.131V34.3067H3.95928V39.3372H10.2658V42.4566H3.95928V50.7471H0V31.131H12.1889Z" fill="#2C2C2C"/>
<path d="M18.6729 29.9507V50.7471H14.7136V29.9507H18.6729Z" fill="#2C2C2C"/>
<path d="M29.2589 51C27.7506 51 26.3931 50.6721 25.1865 50.0164C23.9799 49.3419 23.0277 48.3958 22.3302 47.178C21.6514 45.9602 21.3121 44.555 21.3121 42.9625C21.3121 41.37 21.6608 39.9648 22.3584 38.747C23.0749 37.5292 24.0458 36.5924 25.2713 35.9367C26.4968 35.2622 27.8637 34.925 29.372 34.925C30.8803 34.925 32.2472 35.2622 33.4727 35.9367C34.6982 36.5924 35.6597 37.5292 36.3573 38.747C37.0738 39.9648 37.432 41.37 37.432 42.9625C37.432 44.555 37.0643 45.9602 36.329 47.178C35.6126 48.3958 34.6322 49.3419 33.3879 50.0164C32.1624 50.6721 30.786 51 29.2589 51ZM29.2589 47.5714C29.9753 47.5714 30.6446 47.4028 31.2668 47.0655C31.9078 46.7096 32.4169 46.185 32.794 45.4918C33.171 44.7986 33.3596 43.9555 33.3596 42.9625C33.3596 41.4824 32.9636 40.3489 32.1718 39.562C31.3988 38.7564 30.4467 38.3536 29.3155 38.3536C28.1842 38.3536 27.2321 38.7564 26.4591 39.562C25.705 40.3489 25.3279 41.4824 25.3279 42.9625C25.3279 44.4426 25.6955 45.5854 26.4308 46.3911C27.185 47.178 28.1277 47.5714 29.2589 47.5714Z" fill="#2C2C2C"/>
<path d="M47.0105 51C45.5022 51 44.1447 50.6721 42.9381 50.0164C41.7314 49.3419 40.7793 48.3958 40.0817 47.178C39.403 45.9602 39.0636 44.555 39.0636 42.9625C39.0636 41.37 39.4124 39.9648 40.11 38.747C40.8264 37.5292 41.7974 36.5924 43.0229 35.9367C44.2484 35.2622 45.6153 34.925 47.1236 34.925C48.6319 34.925 49.9988 35.2622 51.2243 35.9367C52.4498 36.5924 53.4113 37.5292 54.1089 38.747C54.8253 39.9648 55.1835 41.37 55.1835 42.9625C55.1835 44.555 54.8159 45.9602 54.0806 47.178C53.3642 48.3958 52.3838 49.3419 51.1394 50.0164C49.9139 50.6721 48.5376 51 47.0105 51ZM47.0105 47.5714C47.7269 47.5714 48.3962 47.4028 49.0184 47.0655C49.6594 46.7096 50.1685 46.185 50.5455 45.4918C50.9226 44.7986 51.1111 43.9555 51.1111 42.9625C51.1111 41.4824 50.7152 40.3489 49.9234 39.562C49.1504 38.7564 48.1982 38.3536 47.067 38.3536C45.9358 38.3536 44.9837 38.7564 44.2107 39.562C43.4565 40.3489 43.0795 41.4824 43.0795 42.9625C43.0795 44.4426 43.4471 45.5854 44.1824 46.3911C44.9366 47.178 45.8792 47.5714 47.0105 47.5714Z" fill="#2C2C2C"/>
<path d="M61.7643 37.5948C62.2734 36.7704 62.9332 36.124 63.7439 35.6556C64.5735 35.1873 65.5162 34.9531 66.572 34.9531V39.0842H65.5256C64.2813 39.0842 63.3386 39.3746 62.6976 39.9554C62.0754 40.5362 61.7643 41.548 61.7643 42.9906V50.7471H57.805V35.1779H61.7643V37.5948Z" fill="#2C2C2C"/>
<path d="M74.898 50.7471C73.8794 50.7471 73.0536 49.9265 73.0536 48.9143V46.4705H89.6531V48.9143C89.6531 49.9265 88.8273 50.7471 87.8087 50.7471H74.898Z" fill="#2C2C2C"/>
<path d="M73.0536 44.6378V40.3612H89.6531V44.6378H73.0536Z" fill="#2C2C2C"/>
<path d="M73.0536 38.5283V36.0845C73.0536 35.0723 73.8794 34.2517 74.898 34.2517L87.8087 34.2517C88.8273 34.2517 89.6531 35.0723 89.6531 36.0845V38.5283H73.0536Z" fill="#2C2C2C"/>
</svg>

